<svg class="diagram-root" style="background: #f5f6f6" xmlns="http://www.w3.org/2000/svg" xmlns:xlink="http://www.w3.org/1999/xlink"><style>.diagram-root { font-family: "Helvetica Neue", sans-serif; font-size: 12px; } .t { overflow: visible; } .t-bg { y: 40; fill: #fff;   } .th { fill: #005aa0;   } .tht { fill: #fff; font-size: 14px;  } .tf { fill: #323c46; overflow: visible; } .tf.pk { fill: #005aa0; font-weight: bold; } .tf.fk { font-weight: bold; } .ty { fill: #adb1b5; font-weight: normal; text-anchor: end; } .r { fill: transparent; stroke: #c3c3c3; stroke-width: 1; } .l { stroke: 1; } .i { fill: #c2c7ce; stroke: #c2c7ce; } .i.ix { fill: #afb3b6; stroke: #000; } .fa { fill: transparent; overflow: visible; } .fa .bg.hover { fill: #f7f7f7; } .c { cy: 12; r: 4; stroke: #d2d2dc; fill: #d2d2dc; } .hr { fill: transparent; stroke: #323c46; stroke-opacity: 0.035; stroke-width: 13; } .dc { stroke: #fa5a3c; fill: #fa5a3c; } .x { stroke: white; stroke-width: 1; } .hl .th { fill: #1b9bff; } .hl .tht {  } .fhl .bg { fill: #e7f4ff; } .fhls .bg {  } .r.hl { stroke: #1b9bff; } .dim { opacity: 0.25; }</style><g class="drawing-wrapper" transform="translate(916.4033333333346, 520) scale(1,1)"><g class="rs"><path d="M -571.61 -251.75 m -1, 0 a 1,1 0 1,0 2,0 a 1,1 0 1,0 -2,0 M -571.61 -251.75 m -0.5, 0 a 0.5,0.5 0 1,0 1,0 a 0.5,0.5 0 1,0 -1,0  M-571.61 -251.75 L-571.61 -251.75 -583.61 -251.75 M -571.61 -245.75 m -1, 0 a 1,1 0 1,0 2,0 a 1,1 0 1,0 -2,0 M -571.61 -245.75 m -0.5, 0 a 0.5,0.5 0 1,0 1,0 a 0.5,0.5 0 1,0 -1,0  M-571.61 -245.75 L-571.61 -245.75 -578.61 -251.75 -571.61 -257.75 M -571.61 -257.75 m -1, 0 a 1,1 0 1,0 2,0 a 1,1 0 1,0 -2,0 M -571.61 -257.75 m -0.5, 0 a 0.5,0.5 0 1,0 1,0 a 0.5,0.5 0 1,0 -1,0  M-583.61 -251.75 Q -605.45 -251.75, -627.3 -334.65 T -670.98 -417.54333333333335 M -682.98 -417.54333333333335 m -1, 0 a 1,1 0 1,0 2,0 a 1,1 0 1,0 -2,0 M -682.98 -417.54333333333335 m -0.5, 0 a 0.5,0.5 0 1,0 1,0 a 0.5,0.5 0 1,0 -1,0  M-682.98 -417.54333333333335 L-682.98 -417.54333333333335 -670.98 -417.54333333333335 M-676.98 -411.54333333333335 L-676.98 -411.54333333333335 -676.98 -423.54333333333335" id="h3728296366" class="r"></path><path d="M -571.61 -176.75 m -1, 0 a 1,1 0 1,0 2,0 a 1,1 0 1,0 -2,0 M -571.61 -176.75 m -0.5, 0 a 0.5,0.5 0 1,0 1,0 a 0.5,0.5 0 1,0 -1,0  M-571.61 -176.75 L-571.61 -176.75 -583.61 -176.75 M -571.61 -170.75 m -1, 0 a 1,1 0 1,0 2,0 a 1,1 0 1,0 -2,0 M -571.61 -170.75 m -0.5, 0 a 0.5,0.5 0 1,0 1,0 a 0.5,0.5 0 1,0 -1,0  M-571.61 -170.75 L-571.61 -170.75 -578.61 -176.75 -571.61 -182.75 M -571.61 -182.75 m -1, 0 a 1,1 0 1,0 2,0 a 1,1 0 1,0 -2,0 M -571.61 -182.75 m -0.5, 0 a 0.5,0.5 0 1,0 1,0 a 0.5,0.5 0 1,0 -1,0  M-583.61 -176.75 Q -605.75 -176.75, -627.9 -225.2 T -672.19 -273.65 M -684.19 -273.65 m -1, 0 a 1,1 0 1,0 2,0 a 1,1 0 1,0 -2,0 M -684.19 -273.65 m -0.5, 0 a 0.5,0.5 0 1,0 1,0 a 0.5,0.5 0 1,0 -1,0  M-684.19 -273.65 L-684.19 -273.65 -672.19 -273.65 M-678.19 -267.65 L-678.19 -267.65 -678.19 -279.65" id="h3256344471" class="r"></path><path d="M -571.61 -151.75 m -1, 0 a 1,1 0 1,0 2,0 a 1,1 0 1,0 -2,0 M -571.61 -151.75 m -0.5, 0 a 0.5,0.5 0 1,0 1,0 a 0.5,0.5 0 1,0 -1,0  M-571.61 -151.75 L-571.61 -151.75 -583.61 -151.75 M -571.61 -145.75 m -1, 0 a 1,1 0 1,0 2,0 a 1,1 0 1,0 -2,0 M -571.61 -145.75 m -0.5, 0 a 0.5,0.5 0 1,0 1,0 a 0.5,0.5 0 1,0 -1,0  M-571.61 -145.75 L-571.61 -145.75 -578.61 -151.75 -571.61 -157.75 M -571.61 -157.75 m -1, 0 a 1,1 0 1,0 2,0 a 1,1 0 1,0 -2,0 M -571.61 -157.75 m -0.5, 0 a 0.5,0.5 0 1,0 1,0 a 0.5,0.5 0 1,0 -1,0  M-583.61 -151.75 Q -605.13 -151.75, -626.65 -159.34 T -669.7 -166.94 M -681.7 -166.94 m -1, 0 a 1,1 0 1,0 2,0 a 1,1 0 1,0 -2,0 M -681.7 -166.94 m -0.5, 0 a 0.5,0.5 0 1,0 1,0 a 0.5,0.5 0 1,0 -1,0  M-681.7 -166.94 L-681.7 -166.94 -669.7 -166.94 M-675.7 -160.94 L-675.7 -160.94 -675.7 -172.94" id="h2771955688" class="r"></path><path d="M -360.87 -126.75 m -1, 0 a 1,1 0 1,0 2,0 a 1,1 0 1,0 -2,0 M -360.87 -126.75 m -0.5, 0 a 0.5,0.5 0 1,0 1,0 a 0.5,0.5 0 1,0 -1,0  M-360.87 -126.75 L-360.87 -126.75 -348.87 -126.75 M -360.87 -120.75 m -1, 0 a 1,1 0 1,0 2,0 a 1,1 0 1,0 -2,0 M -360.87 -120.75 m -0.5, 0 a 0.5,0.5 0 1,0 1,0 a 0.5,0.5 0 1,0 -1,0  M-360.87 -120.75 L-360.87 -120.75 -353.87 -126.75 -360.87 -132.75 M -360.87 -132.75 m -1, 0 a 1,1 0 1,0 2,0 a 1,1 0 1,0 -2,0 M -360.87 -132.75 m -0.5, 0 a 0.5,0.5 0 1,0 1,0 a 0.5,0.5 0 1,0 -1,0  M-348.87 -126.75 Q -332.64 -126.75, -316.42 -274.99 T -283.96000000000004 -423.23 M -271.96000000000004 -423.23 m -1, 0 a 1,1 0 1,0 2,0 a 1,1 0 1,0 -2,0 M -271.96000000000004 -423.23 m -0.5, 0 a 0.5,0.5 0 1,0 1,0 a 0.5,0.5 0 1,0 -1,0  M-271.96000000000004 -423.23 L-271.96000000000004 -423.23 -283.96000000000004 -423.23 M-277.96000000000004 -417.23 L-277.96000000000004 -417.23 -277.96000000000004 -429.23" id="h3184078543" class="r"></path><path d="M -571.61 -101.75 m -1, 0 a 1,1 0 1,0 2,0 a 1,1 0 1,0 -2,0 M -571.61 -101.75 m -0.5, 0 a 0.5,0.5 0 1,0 1,0 a 0.5,0.5 0 1,0 -1,0  M-571.61 -101.75 L-571.61 -101.75 -583.61 -101.75 M -571.61 -95.75 m -1, 0 a 1,1 0 1,0 2,0 a 1,1 0 1,0 -2,0 M -571.61 -95.75 m -0.5, 0 a 0.5,0.5 0 1,0 1,0 a 0.5,0.5 0 1,0 -1,0  M-571.61 -95.75 L-571.61 -95.75 -578.61 -101.75 -571.61 -107.75 M -571.61 -107.75 m -1, 0 a 1,1 0 1,0 2,0 a 1,1 0 1,0 -2,0 M -571.61 -107.75 m -0.5, 0 a 0.5,0.5 0 1,0 1,0 a 0.5,0.5 0 1,0 -1,0  M-583.61 -101.75 Q -603.54 -101.75, -623.46 -70.69 T -663.32 -39.64 M -675.32 -39.64 m -1, 0 a 1,1 0 1,0 2,0 a 1,1 0 1,0 -2,0 M -675.32 -39.64 m -0.5, 0 a 0.5,0.5 0 1,0 1,0 a 0.5,0.5 0 1,0 -1,0  M-675.32 -39.64 L-675.32 -39.64 -663.32 -39.64 M-669.32 -33.64 L-669.32 -33.64 -669.32 -45.64" id="h2312915373" class="r"></path><path d="M -360.87 -76.75 m -1, 0 a 1,1 0 1,0 2,0 a 1,1 0 1,0 -2,0 M -360.87 -76.75 m -0.5, 0 a 0.5,0.5 0 1,0 1,0 a 0.5,0.5 0 1,0 -1,0  M-360.87 -76.75 L-360.87 -76.75 -348.87 -76.75 M -360.87 -70.75 m -1, 0 a 1,1 0 1,0 2,0 a 1,1 0 1,0 -2,0 M -360.87 -70.75 m -0.5, 0 a 0.5,0.5 0 1,0 1,0 a 0.5,0.5 0 1,0 -1,0  M-360.87 -70.75 L-360.87 -70.75 -353.87 -76.75 -360.87 -82.75 M -360.87 -82.75 m -1, 0 a 1,1 0 1,0 2,0 a 1,1 0 1,0 -2,0 M -360.87 -82.75 m -0.5, 0 a 0.5,0.5 0 1,0 1,0 a 0.5,0.5 0 1,0 -1,0  M-348.87 -76.75 Q -329.63 -76.75, -310.39 -116.79 T -271.90999999999997 -156.84 M -259.90999999999997 -156.84 m -1, 0 a 1,1 0 1,0 2,0 a 1,1 0 1,0 -2,0 M -259.90999999999997 -156.84 m -0.5, 0 a 0.5,0.5 0 1,0 1,0 a 0.5,0.5 0 1,0 -1,0  M-259.90999999999997 -156.84 L-259.90999999999997 -156.84 -271.90999999999997 -156.84 M-265.90999999999997 -150.84 L-265.90999999999997 -150.84 -265.90999999999997 -162.84" id="h3412621187" class="r"></path><path d="M 20.119999999999997 43.55 m -1, 0 a 1,1 0 1,0 2,0 a 1,1 0 1,0 -2,0 M 20.119999999999997 43.55 m -0.5, 0 a 0.5,0.5 0 1,0 1,0 a 0.5,0.5 0 1,0 -1,0  M20.119999999999997 43.55 L20.119999999999997 43.55 8.119999999999997 43.55 M 20.119999999999997 49.55 m -1, 0 a 1,1 0 1,0 2,0 a 1,1 0 1,0 -2,0 M 20.119999999999997 49.55 m -0.5, 0 a 0.5,0.5 0 1,0 1,0 a 0.5,0.5 0 1,0 -1,0  M20.119999999999997 49.55 L20.119999999999997 49.55 13.119999999999997 43.55 20.119999999999997 37.55 M 20.119999999999997 37.55 m -1, 0 a 1,1 0 1,0 2,0 a 1,1 0 1,0 -2,0 M 20.119999999999997 37.55 m -0.5, 0 a 0.5,0.5 0 1,0 1,0 a 0.5,0.5 0 1,0 -1,0  M8.119999999999997 43.55 Q -7.87 43.55, -23.86 -56.64 T -55.849999999999994 -156.84 M -67.85 -156.84 m -1, 0 a 1,1 0 1,0 2,0 a 1,1 0 1,0 -2,0 M -67.85 -156.84 m -0.5, 0 a 0.5,0.5 0 1,0 1,0 a 0.5,0.5 0 1,0 -1,0  M-67.85 -156.84 L-67.85 -156.84 -55.849999999999994 -156.84 M-61.849999999999994 -150.84 L-61.849999999999994 -150.84 -61.849999999999994 -162.84" id="h1502567414" class="r"></path><path d="M -99.92 -373.23 m -1, 0 a 1,1 0 1,0 2,0 a 1,1 0 1,0 -2,0 M -99.92 -373.23 m -0.5, 0 a 0.5,0.5 0 1,0 1,0 a 0.5,0.5 0 1,0 -1,0  M-99.92 -373.23 L-99.92 -373.23 -87.92 -373.23 M -99.92 -367.23 m -1, 0 a 1,1 0 1,0 2,0 a 1,1 0 1,0 -2,0 M -99.92 -367.23 m -0.5, 0 a 0.5,0.5 0 1,0 1,0 a 0.5,0.5 0 1,0 -1,0  M-99.92 -367.23 L-99.92 -367.23 -92.92 -373.23 -99.92 -379.23 M -99.92 -379.23 m -1, 0 a 1,1 0 1,0 2,0 a 1,1 0 1,0 -2,0 M -99.92 -379.23 m -0.5, 0 a 0.5,0.5 0 1,0 1,0 a 0.5,0.5 0 1,0 -1,0  M-87.92 -373.23 Q -72.88 -373.23, -57.84 -403.11 T -27.769999999999996 -433 M -15.769999999999996 -433 m -1, 0 a 1,1 0 1,0 2,0 a 1,1 0 1,0 -2,0 M -15.769999999999996 -433 m -0.5, 0 a 0.5,0.5 0 1,0 1,0 a 0.5,0.5 0 1,0 -1,0  M-15.769999999999996 -433 L-15.769999999999996 -433 -27.769999999999996 -433 M-21.769999999999996 -427 L-21.769999999999996 -427 -21.769999999999996 -439" id="h1773217178" class="r"></path><path d="M -99.92 -348.23 m -1, 0 a 1,1 0 1,0 2,0 a 1,1 0 1,0 -2,0 M -99.92 -348.23 m -0.5, 0 a 0.5,0.5 0 1,0 1,0 a 0.5,0.5 0 1,0 -1,0  M-99.92 -348.23 L-99.92 -348.23 -87.92 -348.23 M -99.92 -342.23 m -1, 0 a 1,1 0 1,0 2,0 a 1,1 0 1,0 -2,0 M -99.92 -342.23 m -0.5, 0 a 0.5,0.5 0 1,0 1,0 a 0.5,0.5 0 1,0 -1,0  M-99.92 -342.23 L-99.92 -342.23 -92.92 -348.23 -99.92 -354.23 M -99.92 -354.23 m -1, 0 a 1,1 0 1,0 2,0 a 1,1 0 1,0 -2,0 M -99.92 -354.23 m -0.5, 0 a 0.5,0.5 0 1,0 1,0 a 0.5,0.5 0 1,0 -1,0  M-87.92 -348.23 Q -72.24 -348.23, -56.56 -291.3 T -25.21 -234.37 M -13.21 -234.37 m -1, 0 a 1,1 0 1,0 2,0 a 1,1 0 1,0 -2,0 M -13.21 -234.37 m -0.5, 0 a 0.5,0.5 0 1,0 1,0 a 0.5,0.5 0 1,0 -1,0  M-13.21 -234.37 L-13.21 -234.37 -25.21 -234.37 M-19.21 -228.37 L-19.21 -228.37 -19.21 -240.37" id="h563824367" class="r"></path></g><g class="hrs"></g><g class="ts"><svg width="210.74" height="325" x="-571.61" y="-383.75" id="h1854056486" class="t"><rect height="40" width="210.74" class="th"></rect><text x="13" y="25" class="tht">Movies</text><rect height="285" width="210.74" class="t-bg"></rect><text x="13" y="61" class="tf pk">movie_ID<tspan x="197.74" class="ty">int</tspan></text><path d="M7,14A2,2 0 0,1 5,12A2,2 0 0,1 7,10A2,2 0 0,1 9,12A2,2 0 0,1 7,14M12.65,10C11.83,7.67 9.61,6 7, 6A6, 6 0 0, 0 1, 12A6, 6 0 0, 0 7, 18C9.61, 18 11.83, 16.33 12.65, 14H17V18H21V14H23V10H12.65Z" class="i pk" transform="translate(165.066171875, 48) scale(0.65)"></path><text x="13" y="86" class="tf">movie_title<tspan x="197.74" class="ty">varchar(50)</tspan></text><text x="13" y="111" class="tf">movie_description<tspan x="197.74" class="ty">varchar(200)</tspan></text><text x="13" y="136" class="tf fk">genreID<tspan x="197.74" class="ty">int</tspan></text><text x="13" y="161" class="tf">movie_year<tspan x="197.74" class="ty">int</tspan></text><text x="13" y="186" class="tf">movie_revenue<tspan x="197.74" class="ty">flot</tspan></text><text x="13" y="211" class="tf fk">directorID<tspan x="197.74" class="ty">int</tspan></text><text x="13" y="236" class="tf fk">writersID<tspan x="197.74" class="ty">int</tspan></text><text x="13" y="261" class="tf fk">artistID<tspan x="197.74" class="ty">int</tspan></text><text x="13" y="286" class="tf fk">mediaID<tspan x="197.74" class="ty">int</tspan></text><text x="13" y="311" class="tf fk">reviewID<tspan x="197.74" class="ty">int</tspan></text></svg><svg width="211.42" height="125" x="-894.4033333333346" y="-474.54333333333335" id="h1304626560" class="t"><rect height="40" width="211.42" class="th"></rect><text x="13" y="25" class="tht">genre</text><rect height="85" width="211.42" class="t-bg"></rect><text x="13" y="61" class="tf pk">genre_ID<tspan x="198.42" class="ty">int</tspan></text><path d="M7,14A2,2 0 0,1 5,12A2,2 0 0,1 7,10A2,2 0 0,1 9,12A2,2 0 0,1 7,14M12.65,10C11.83,7.67 9.61,6 7, 6A6, 6 0 0, 0 1, 12A6, 6 0 0, 0 7, 18C9.61, 18 11.83, 16.33 12.65, 14H17V18H21V14H23V10H12.65Z" class="i pk" transform="translate(165.746171875, 48) scale(0.65)"></path><text x="13" y="86" class="tf">genre_Name<tspan x="198.42" class="ty">varchar(20)</tspan></text><text x="13" y="111" class="tf">genre_Description<tspan x="198.42" class="ty">varchar(100)</tspan></text></svg><svg width="186.05" height="100" x="-870.24" y="-330.65" id="h3358164272" class="t"><rect height="40" width="186.05" class="th"></rect><text x="13" y="25" class="tht">director</text><rect height="60" width="186.05" class="t-bg"></rect><text x="13" y="61" class="tf pk">director_ID<tspan x="173.05" class="ty">int</tspan></text><path d="M7,14A2,2 0 0,1 5,12A2,2 0 0,1 7,10A2,2 0 0,1 9,12A2,2 0 0,1 7,14M12.65,10C11.83,7.67 9.61,6 7, 6A6, 6 0 0, 0 1, 12A6, 6 0 0, 0 7, 18C9.61, 18 11.83, 16.33 12.65, 14H17V18H21V14H23V10H12.65Z" class="i pk" transform="translate(140.376171875, 48) scale(0.65)"></path><text x="13" y="86" class="tf">director_Name<tspan x="173.05" class="ty">varchar(20)</tspan></text></svg><svg width="175.37" height="100" x="-857.07" y="-223.94" id="h46978715" class="t"><rect height="40" width="175.37" class="th"></rect><text x="13" y="25" class="tht">writer</text><rect height="60" width="175.37" class="t-bg"></rect><text x="13" y="61" class="tf pk">writer_ID<tspan x="162.37" class="ty">int</tspan></text><path d="M7,14A2,2 0 0,1 5,12A2,2 0 0,1 7,10A2,2 0 0,1 9,12A2,2 0 0,1 7,14M12.65,10C11.83,7.67 9.61,6 7, 6A6, 6 0 0, 0 1, 12A6, 6 0 0, 0 7, 18C9.61, 18 11.83, 16.33 12.65, 14H17V18H21V14H23V10H12.65Z" class="i pk" transform="translate(129.696171875, 48) scale(0.65)"></path><text x="13" y="86" class="tf">writer_Name<tspan x="162.37" class="ty">varchar(20)</tspan></text></svg><svg width="130.03" height="125" x="-805.35" y="-96.64" id="h2778993953" class="t"><rect height="40" width="130.03" class="th"></rect><text x="13" y="25" class="tht">media</text><rect height="85" width="130.03" class="t-bg"></rect><text x="13" y="61" class="tf pk">media_ID<tspan x="117.03" class="ty">int</tspan></text><path d="M7,14A2,2 0 0,1 5,12A2,2 0 0,1 7,10A2,2 0 0,1 9,12A2,2 0 0,1 7,14M12.65,10C11.83,7.67 9.61,6 7, 6A6, 6 0 0, 0 1, 12A6, 6 0 0, 0 7, 18C9.61, 18 11.83, 16.33 12.65, 14H17V18H21V14H23V10H12.65Z" class="i pk" transform="translate(84.356171875, 48) scale(0.65)"></path><text x="13" y="86" class="tf">video<tspan x="117.03" class="ty">text?</tspan></text><text x="13" y="111" class="tf">image<tspan x="117.03" class="ty">text?</tspan></text></svg><svg width="172.04" height="150" x="-271.96000000000004" y="-480.23" id="h964181062" class="t"><rect height="40" width="172.04" class="th"></rect><text x="13" y="25" class="tht">artist</text><rect height="110" width="172.04" class="t-bg"></rect><text x="13" y="61" class="tf pk">artist_ID<tspan x="159.04" class="ty">int</tspan></text><path d="M7,14A2,2 0 0,1 5,12A2,2 0 0,1 7,10A2,2 0 0,1 9,12A2,2 0 0,1 7,14M12.65,10C11.83,7.67 9.61,6 7, 6A6, 6 0 0, 0 1, 12A6, 6 0 0, 0 7, 18C9.61, 18 11.83, 16.33 12.65, 14H17V18H21V14H23V10H12.65Z" class="i pk" transform="translate(126.36617187499999, 48) scale(0.65)"></path><text x="13" y="86" class="tf">artist_Name<tspan x="159.04" class="ty">varchar(50)</tspan></text><text x="13" y="111" class="tf fk">artistSkilsID<tspan x="159.04" class="ty">int</tspan></text><text x="13" y="136" class="tf fk">artistRole<tspan x="159.04" class="ty">int</tspan></text></svg><svg width="192.06" height="225" x="-259.90999999999997" y="-213.84" id="h89803900" class="t"><rect height="40" width="192.06" class="th"></rect><text x="13" y="25" class="tht">review</text><rect height="185" width="192.06" class="t-bg"></rect><text x="13" y="61" class="tf pk">review_ID<tspan x="179.06" class="ty">int</tspan></text><path d="M7,14A2,2 0 0,1 5,12A2,2 0 0,1 7,10A2,2 0 0,1 9,12A2,2 0 0,1 7,14M12.65,10C11.83,7.67 9.61,6 7, 6A6, 6 0 0, 0 1, 12A6, 6 0 0, 0 7, 18C9.61, 18 11.83, 16.33 12.65, 14H17V18H21V14H23V10H12.65Z" class="i pk" transform="translate(146.386171875, 48) scale(0.65)"></path><text x="13" y="86" class="tf">review_Title<tspan x="179.06" class="ty">varchar(20)</tspan></text><text x="13" y="111" class="tf">review_Details<tspan x="179.06" class="ty">varchar(100)</tspan></text><text x="13" y="136" class="tf">review_Score<tspan x="179.06" class="ty">int</tspan></text><text x="13" y="161" class="tf">review_Date<tspan x="179.06" class="ty">date</tspan></text><text x="13" y="186" class="tf fk">movieID<tspan x="179.06" class="ty">int</tspan></text><text x="13" y="211" class="tf fk">userID<tspan x="179.06" class="ty">int</tspan></text></svg><svg width="174.05" height="150" x="20.119999999999997" y="-88.45" id="h2728321744" class="t"><rect height="40" width="174.05" class="th"></rect><text x="13" y="25" class="tht">user</text><rect height="110" width="174.05" class="t-bg"></rect><text x="13" y="61" class="tf pk">user_ID<tspan x="161.05" class="ty">int</tspan></text><path d="M7,14A2,2 0 0,1 5,12A2,2 0 0,1 7,10A2,2 0 0,1 9,12A2,2 0 0,1 7,14M12.65,10C11.83,7.67 9.61,6 7, 6A6, 6 0 0, 0 1, 12A6, 6 0 0, 0 7, 18C9.61, 18 11.83, 16.33 12.65, 14H17V18H21V14H23V10H12.65Z" class="i pk" transform="translate(128.376171875, 48) scale(0.65)"></path><text x="13" y="86" class="tf">user_Name<tspan x="161.05" class="ty">varchar(50)</tspan></text><text x="13" y="111" class="tf">user_Email<tspan x="161.05" class="ty">varchar(100)</tspan></text><text x="13" y="136" class="tf fk">reviewID<tspan x="161.05" class="ty">int</tspan></text></svg><svg width="194.06" height="125" x="-13.21" y="-291.37" id="h1984242216" class="t"><rect height="40" width="194.06" class="th"></rect><text x="13" y="25" class="tht">role</text><rect height="85" width="194.06" class="t-bg"></rect><text x="13" y="61" class="tf pk">role_ID<tspan x="181.06" class="ty">int</tspan></text><path d="M7,14A2,2 0 0,1 5,12A2,2 0 0,1 7,10A2,2 0 0,1 9,12A2,2 0 0,1 7,14M12.65,10C11.83,7.67 9.61,6 7, 6A6, 6 0 0, 0 1, 12A6, 6 0 0, 0 7, 18C9.61, 18 11.83, 16.33 12.65, 14H17V18H21V14H23V10H12.65Z" class="i pk" transform="translate(148.386171875, 48) scale(0.65)"></path><text x="13" y="86" class="tf">role_Name<tspan x="181.06" class="ty">varchar(20)</tspan></text><text x="13" y="111" class="tf">role_Description<tspan x="181.06" class="ty">varchar(50)</tspan></text></svg><svg width="172.04" height="100" x="-15.769999999999996" y="-490" id="h1315988095" class="t"><rect height="40" width="172.04" class="th"></rect><text x="13" y="25" class="tht">skills</text><rect height="60" width="172.04" class="t-bg"></rect><text x="13" y="61" class="tf pk">skill_ID<tspan x="159.04" class="ty">int</tspan></text><path d="M7,14A2,2 0 0,1 5,12A2,2 0 0,1 7,10A2,2 0 0,1 9,12A2,2 0 0,1 7,14M12.65,10C11.83,7.67 9.61,6 7, 6A6, 6 0 0, 0 1, 12A6, 6 0 0, 0 7, 18C9.61, 18 11.83, 16.33 12.65, 14H17V18H21V14H23V10H12.65Z" class="i pk" transform="translate(126.36617187499999, 48) scale(0.65)"></path><text x="13" y="86" class="tf">skills_Name<tspan x="159.04" class="ty">varchar(50)</tspan></text></svg></g></g></svg>